<?xml version="1.0" encoding="UTF-8"?>
<svg width="40px" height="40px" viewBox="0 0 40 40" version="1.1" xmlns="http://www.w3.org/2000/svg" xmlns:xlink="http://www.w3.org/1999/xlink">
    <!-- Generator: Sketch 41 (35326) - http://www.bohemiancoding.com/sketch -->
    <title>btn_mima_yincang</title>
    <desc>Created with Sketch.</desc>
    <defs></defs>
    <g id="Symbols" stroke="none" stroke-width="1" fill="none" fill-rule="evenodd">
        <g id="btn_mima_yincang" fill="#BBBBBB">
            <path d="M39.8697857,18.3994882 C39.6937857,18.6934882 39.3737857,18.8574882 39.0457857,18.8574882 C38.8827857,18.8574882 38.7187857,18.8174882 38.5687857,18.7334882 L35.4997857,17.0104882 C34.9217857,17.5964882 34.2487857,18.1414882 33.4937857,18.6444882 L35.6887857,21.1514882 C36.0277857,21.5394882 35.9777857,22.1194882 35.5767857,22.4474882 C35.3967857,22.5934882 35.1787857,22.6644882 34.9617857,22.6644882 C34.6907857,22.6644882 34.4227857,22.5544882 34.2337857,22.3384882 L31.8417857,19.6054882 C30.8887857,20.0914882 29.8467857,20.5184882 28.7307857,20.8764882 L30.0767857,24.2104882 C30.2687857,24.6834882 30.0257857,25.2164882 29.5357857,25.4004882 C29.4217857,25.4434882 29.3047857,25.4644882 29.1897857,25.4644882 C28.8087857,25.4644882 28.4497857,25.2414882 28.3027857,24.8784882 L26.8927857,21.3874882 C25.7947857,21.6494882 24.6427857,21.8504882 23.4517857,21.9834882 L24.1867857,25.9164882 C24.2807857,26.4154882 23.9367857,26.8944882 23.4187857,26.9844882 C23.3617857,26.9944882 23.3047857,26.9994882 23.2487857,26.9994882 C22.7967857,26.9994882 22.3957857,26.6874882 22.3127857,26.2434882 L21.5457857,22.1384882 C21.0357857,22.1634882 20.5207857,22.1764882 19.9997857,22.1764882 C19.4797857,22.1764882 18.9637857,22.1634882 18.4537857,22.1384882 L17.6867857,26.2434882 C17.6037857,26.6874882 17.2027857,26.9994882 16.7507857,26.9994882 C16.6947857,26.9994882 16.6377857,26.9944882 16.5807857,26.9844882 C16.0627857,26.8944882 15.7187857,26.4154882 15.8127857,25.9164882 L16.5477857,21.9834882 C15.3557857,21.8504882 14.2047857,21.6494882 13.1067857,21.3874882 L11.6967857,24.8784882 C11.5497857,25.2414882 11.1907857,25.4644882 10.8087857,25.4644882 C10.6947857,25.4644882 10.5767857,25.4434882 10.4627857,25.4004882 C9.97378569,25.2164882 9.73178569,24.6834882 9.92178569,24.2104882 L11.2687857,20.8764882 C10.1527857,20.5184882 9.11078569,20.0914882 8.15778569,19.6054882 L5.76578569,22.3384882 C5.57678569,22.5544882 5.30778569,22.6644882 5.03778569,22.6644882 C4.82078569,22.6644882 4.60178569,22.5934882 4.42378569,22.4474882 C4.02178569,22.1194882 3.97078569,21.5394882 4.31078569,21.1514882 L6.50578569,18.6444882 C5.75078569,18.1414882 5.07778569,17.5964882 4.49978569,17.0104882 L1.43078569,18.7334882 C1.28078569,18.8174882 1.11678569,18.8574882 0.953785691,18.8574882 C0.624785691,18.8574882 0.306785691,18.6934882 0.128785691,18.3994882 C-0.135214309,17.9614882 0.0197856911,17.3984882 0.473785691,17.1434882 L3.31078569,15.5514882 C3.03778569,15.1334882 2.80878569,14.7004882 2.62778569,14.2554882 C2.43578569,13.7824882 2.67778569,13.2474882 3.16778569,13.0634882 C3.65678569,12.8784882 4.20978569,13.1114882 4.40178569,13.5844882 C5.80478569,17.0464882 11.1027857,19.6654882 17.4657857,20.2244882 C17.5877857,20.1984882 17.7157857,20.1944882 17.8457857,20.2164882 C17.9117857,20.2284882 17.9747857,20.2464882 18.0347857,20.2694882 C18.6807857,20.3134882 19.3367857,20.3364882 19.9997857,20.3364882 C20.6637857,20.3364882 21.3187857,20.3134882 21.9647857,20.2694882 C22.0247857,20.2464882 22.0877857,20.2284882 22.1537857,20.2164882 C22.2827857,20.1944882 22.4107857,20.1984882 22.5307857,20.2244882 C28.8957857,19.6664882 34.1947857,17.0464882 35.5977857,13.5844882 C35.7907857,13.1114882 36.3427857,12.8784882 36.8317857,13.0634882 C37.3217857,13.2484882 37.5637857,13.7814882 37.3717857,14.2554882 C37.1917857,14.7004882 36.9617857,15.1334882 36.6887857,15.5514882 L39.5247857,17.1434882 C39.9797857,17.3984882 40.1347857,17.9614882 39.8697857,18.3994882 L39.8697857,18.3994882 L39.8697857,18.3994882 Z"></path>
        </g>
    </g>
</svg>