<?xml version="1.0" encoding="UTF-8"?>
<svg width="40px" height="40px" viewBox="0 0 40 40" version="1.1" xmlns="http://www.w3.org/2000/svg" xmlns:xlink="http://www.w3.org/1999/xlink">
    <!-- Generator: Sketch 41 (35326) - http://www.bohemiancoding.com/sketch -->
    <title>btn_mima_xianshi</title>
    <desc>Created with Sketch.</desc>
    <defs></defs>
    <g id="Symbols" stroke="none" stroke-width="1" fill="none" fill-rule="evenodd">
        <g id="btn_mima_xianshi" fill="#BBBBBB">
            <g id="Group-3" transform="translate(0.000000, 8.000000)">
                <path d="M20,24 C11.658,24 0,16.15 0,12.5 C0,6.717 11.728,0 20,0 C29.052,0 40,8.797 40,12.5 C40,15.582 28.034,24 20,24 L20,24 Z M20,2.001 C12.056,2.001 2,8.51 1.999,12.483 C2.208,14.44 11.858,21.999 20,21.999 C27.343,21.999 37.303,14.496 37.995,12.433 C37.725,10.173 28.351,2.001 20,2.001 L20,2.001 Z M20,19.001 C16.133,19.001 12.999,15.867 12.999,12 C12.999,8.133 16.133,5 20,5 C23.867,5 27.001,8.133 27.001,12 C27.001,15.867 23.867,19.001 20,19.001 L20,19.001 Z M20,7 C17.244,7 15,9.244 15,12 C15,14.756 17.244,17 20,17 C22.756,17 25,14.756 25,12 C25,9.244 22.756,7 20,7 L20,7 Z" id="btn_mima_xianshi"></path>
            </g>
        </g>
    </g>
</svg>