<?xml version="1.0" encoding="UTF-8"?>
<svg width="41px" height="40px" viewBox="0 0 41 40" version="1.1" xmlns="http://www.w3.org/2000/svg" xmlns:xlink="http://www.w3.org/1999/xlink">
    <!-- Generator: Sketch 41 (35326) - http://www.bohemiancoding.com/sketch -->
    <title>success</title>
    <desc>Created with Sketch.</desc>
    <defs></defs>
    <g id="密码登录" stroke="none" stroke-width="1" fill="none" fill-rule="evenodd">
        <g id="7" transform="translate(-280.000000, -657.000000)" fill="#7ED321">
            <g id="Group-2" transform="translate(185.000000, 627.000000)">
                <g id="Group-3" transform="translate(95.000000, 28.000000)">
                    <path d="M21.6654314,41.9809456 C10.6297206,42.4585236 1.2967348,33.9003751 0.819064668,22.8647678 C0.341348686,11.8296186 8.89973544,2.49673443 19.9345299,2.0190648 C30.9702865,1.54134933 40.3023102,10.0996353 40.7809424,21.1347386 C41.2585667,32.1694296 32.7002259,41.5032301 21.6654314,41.9809456 Z M20.0253817,4.12230478 C10.1520504,4.55003583 2.49457544,12.9003206 2.92226109,22.7735038 C3.3499926,32.6471451 11.7004237,40.3045203 21.5745797,39.8776598 C31.4480025,39.4490583 39.1053859,31.0996898 38.6776085,21.2255903 C38.2499687,11.3523612 29.8995834,3.69503192 20.0253817,4.12230478 Z M19.3678407,30.1797198 L19.3678407,30.180682 L18.40068,31.1623191 C18.1336685,31.433912 17.6959035,31.439364 17.4226153,31.1741395 L16.4345629,30.2142645 L16.4345629,30.2133483 L10.3844714,23.4673298 C10.1120537,23.2021511 10.1066475,22.7675936 10.3736131,22.4965508 L11.3407738,21.5139513 C11.6077394,21.2424045 12.046375,21.2378688 12.3187926,21.5025891 L17.8730254,27.7696095 L28.9931737,15.5429892 C29.2602769,15.2714423 29.6978587,15.2669524 29.9712842,15.531627 L30.9592909,16.4910897 C31.2327165,16.7562682 31.2372064,17.1907799 30.9702407,17.4623268 L19.3678407,30.1797198 Z" id="success"></path>
                </g>
            </g>
        </g>
    </g>
</svg>